<?xml version="1.0" encoding="UTF-8"?>
<svg id="Layer_1" xmlns="http://www.w3.org/2000/svg" version="1.1" viewBox="0 0 20 20">
  <!-- Generator: Adobe Illustrator 29.2.1, SVG Export Plug-In . SVG Version: 2.1.0 Build 116)  -->
  <defs>
    <style>
      .st0 {
        fill: #fff;
      }
    </style>
  </defs>
  <rect class="st0" x="1" y="1" width="18" height="18" rx="2.4" ry="2.4"/>
  <path d="M7.3,6.9c0-1,.9-1.9,3-1.9s2.6.4,3.8,1.1l.8-2c-1.2-.8-2.9-1.2-4.6-1.2-3.8,0-5.6,1.9-5.6,4.1,0,5.1,8.2,3.2,8.2,6.1s-.9,1.8-3.1,1.8-3.4-.6-4.5-1.5l-.9,2c1.1,1,3.3,1.7,5.4,1.7,3.8,0,5.6-1.9,5.6-4.1,0-5.1-8.2-3.2-8.2-6.1Z"/>
</svg>